<mxfile host="Electron" modified="2024-03-25T21:54:48.992Z" agent="Mozilla/5.0 (Windows NT 10.0; Win64; x64) AppleWebKit/537.36 (KHTML, like Gecko) draw.io/24.1.0 Chrome/120.0.6099.109 Electron/28.1.0 Safari/537.36" etag="kCsx2IO--JU9Z-1d8V2J" version="24.1.0" type="device">
  <diagram id="bsTosLUH5mfE9uCYUgKQ" name="Page-1">
    <mxGraphModel dx="-870" dy="1829" grid="1" gridSize="10" guides="1" tooltips="1" connect="1" arrows="1" fold="1" page="1" pageScale="1" pageWidth="1920" pageHeight="1200" math="0" shadow="0">
      <root>
        <mxCell id="0" />
        <mxCell id="1" parent="0" />
        <mxCell id="8j6VqZWyWBpULk93ZD53-1" value="" style="rounded=0;whiteSpace=wrap;html=1;fontSize=22;fillColor=#f5f5f5;fontColor=#333333;strokeColor=#666666;direction=east;strokeWidth=2;fontStyle=1" parent="1" vertex="1">
          <mxGeometry x="1930" y="60" width="2540" height="1410" as="geometry" />
        </mxCell>
        <mxCell id="c3ZWLQ72MxxmwfxnQ8nf-6" value="" style="rounded=0;whiteSpace=wrap;html=1;strokeWidth=2;fontStyle=1;" parent="1" vertex="1">
          <mxGeometry x="1959" y="977.88" width="2490" height="462.12" as="geometry" />
        </mxCell>
        <mxCell id="8j6VqZWyWBpULk93ZD53-159" value="KM" style="ellipse;whiteSpace=wrap;html=1;fillColor=#dae8fc;strokeColor=#6c8ebf;gradientColor=#7ea6e0;fontStyle=1" parent="c3ZWLQ72MxxmwfxnQ8nf-6" vertex="1">
          <mxGeometry x="1251" y="247.0000000000001" width="30" height="26" as="geometry" />
        </mxCell>
        <mxCell id="aBrNtb3bDGu1mBepz1W1-2" value="IDA" style="ellipse;whiteSpace=wrap;html=1;fillColor=#dae8fc;strokeColor=#6c8ebf;gradientColor=#7ea6e0;fontStyle=1" parent="c3ZWLQ72MxxmwfxnQ8nf-6" vertex="1">
          <mxGeometry x="1251" y="217.37" width="30" height="26" as="geometry" />
        </mxCell>
        <mxCell id="8j6VqZWyWBpULk93ZD53-150" value="IDA" style="ellipse;whiteSpace=wrap;html=1;fillColor=#dae8fc;strokeColor=#6c8ebf;gradientColor=#7ea6e0;fontStyle=1" parent="c3ZWLQ72MxxmwfxnQ8nf-6" vertex="1">
          <mxGeometry x="2339" y="177.12" width="30" height="26" as="geometry" />
        </mxCell>
        <mxCell id="8j6VqZWyWBpULk93ZD53-86" value="" style="rounded=0;whiteSpace=wrap;html=1;strokeWidth=2;fontStyle=1;labelBackgroundColor=default;endArrow=classic;fontSize=12;strokeColor=default;" parent="1" vertex="1">
          <mxGeometry x="1960" y="440" width="2490" height="270" as="geometry" />
        </mxCell>
        <mxCell id="8j6VqZWyWBpULk93ZD53-4" value="" style="rounded=0;whiteSpace=wrap;html=1;strokeWidth=2;fontStyle=1;" parent="1" vertex="1">
          <mxGeometry x="1960" y="100" width="2490" height="340" as="geometry" />
        </mxCell>
        <mxCell id="8j6VqZWyWBpULk93ZD53-5" value="CLAIMANT/&lt;br&gt;SUBSCRIBER" style="text;html=1;align=center;verticalAlign=middle;resizable=0;points=[];autosize=1;strokeColor=none;fillColor=none;fontStyle=1;fontSize=23;strokeWidth=2;horizontal=0;" parent="1" vertex="1">
          <mxGeometry x="1959" y="165" width="80" height="170" as="geometry" />
        </mxCell>
        <mxCell id="8j6VqZWyWBpULk93ZD53-91" style="edgeStyle=orthogonalEdgeStyle;rounded=0;orthogonalLoop=1;jettySize=auto;html=1;exitX=1;exitY=0.5;exitDx=0;exitDy=0;exitPerimeter=0;entryX=0;entryY=0.5;entryDx=0;entryDy=0;strokeColor=#00CC00;strokeWidth=2;fontStyle=1;" parent="1" source="8j6VqZWyWBpULk93ZD53-7" edge="1">
          <mxGeometry relative="1" as="geometry">
            <mxPoint x="2221" y="210" as="targetPoint" />
          </mxGeometry>
        </mxCell>
        <mxCell id="8j6VqZWyWBpULk93ZD53-7" value="&lt;b style=&quot;font-size: 11px;&quot;&gt;START&lt;br&gt;(ONLINE)&lt;br&gt;&lt;/b&gt;" style="strokeWidth=2;html=1;shape=mxgraph.flowchart.terminator;whiteSpace=wrap;fillColor=#d5e8d4;strokeColor=#82b366;fontSize=11;" parent="1" vertex="1">
          <mxGeometry x="2090" y="190" width="100" height="40" as="geometry" />
        </mxCell>
        <mxCell id="8j6VqZWyWBpULk93ZD53-27" value="LM.1" style="text;html=1;align=center;verticalAlign=middle;resizable=0;points=[];autosize=1;strokeColor=none;fillColor=none;fontStyle=1;strokeWidth=2;fontSize=23;" parent="1" vertex="1">
          <mxGeometry x="3167.5" y="60" width="80" height="40" as="geometry" />
        </mxCell>
        <mxCell id="8j6VqZWyWBpULk93ZD53-28" value="A" style="ellipse;whiteSpace=wrap;html=1;aspect=fixed;strokeWidth=2;fontStyle=1;fontSize=22;direction=south;" parent="1" vertex="1">
          <mxGeometry x="1960" y="65" width="30" height="30" as="geometry" />
        </mxCell>
        <mxCell id="8j6VqZWyWBpULk93ZD53-72" value="&lt;font style=&quot;font-size: 14px;&quot;&gt;LEGEND&lt;/font&gt;" style="swimlane;whiteSpace=wrap;html=1;" parent="1" vertex="1">
          <mxGeometry x="4470" y="100" width="200" height="230" as="geometry" />
        </mxCell>
        <mxCell id="8j6VqZWyWBpULk93ZD53-73" value="KM" style="ellipse;whiteSpace=wrap;html=1;fillColor=#dae8fc;strokeColor=#6c8ebf;gradientColor=#7ea6e0;fontStyle=1" parent="8j6VqZWyWBpULk93ZD53-72" vertex="1">
          <mxGeometry x="10" y="30" width="30" height="26" as="geometry" />
        </mxCell>
        <mxCell id="8j6VqZWyWBpULk93ZD53-74" value="IDA" style="ellipse;whiteSpace=wrap;html=1;fillColor=#dae8fc;strokeColor=#6c8ebf;gradientColor=#7ea6e0;fontStyle=1" parent="8j6VqZWyWBpULk93ZD53-72" vertex="1">
          <mxGeometry x="10" y="131" width="30" height="26" as="geometry" />
        </mxCell>
        <mxCell id="8j6VqZWyWBpULk93ZD53-75" value="HSM" style="ellipse;whiteSpace=wrap;html=1;fillColor=#dae8fc;strokeColor=#6c8ebf;gradientColor=#7ea6e0;fontStyle=1" parent="8j6VqZWyWBpULk93ZD53-72" vertex="1">
          <mxGeometry x="10" y="91" width="30" height="26" as="geometry" />
        </mxCell>
        <mxCell id="8j6VqZWyWBpULk93ZD53-76" value="KR" style="ellipse;whiteSpace=wrap;html=1;fillColor=#dae8fc;strokeColor=#6c8ebf;gradientColor=#7ea6e0;fontStyle=1" parent="8j6VqZWyWBpULk93ZD53-72" vertex="1">
          <mxGeometry x="10" y="59" width="30" height="26" as="geometry" />
        </mxCell>
        <mxCell id="8j6VqZWyWBpULk93ZD53-77" value="Key Manager" style="text;html=1;strokeColor=none;fillColor=none;align=center;verticalAlign=middle;whiteSpace=wrap;rounded=0;fontSize=14;" parent="8j6VqZWyWBpULk93ZD53-72" vertex="1">
          <mxGeometry x="40" y="30" width="160" height="28" as="geometry" />
        </mxCell>
        <mxCell id="8j6VqZWyWBpULk93ZD53-78" value="Key Revocation" style="text;html=1;strokeColor=none;fillColor=none;align=center;verticalAlign=middle;whiteSpace=wrap;rounded=0;fontSize=14;" parent="8j6VqZWyWBpULk93ZD53-72" vertex="1">
          <mxGeometry x="40" y="58" width="160" height="28" as="geometry" />
        </mxCell>
        <mxCell id="8j6VqZWyWBpULk93ZD53-79" value="Hardware Security Module" style="text;html=1;strokeColor=none;fillColor=none;align=center;verticalAlign=middle;whiteSpace=wrap;rounded=0;fontSize=14;" parent="8j6VqZWyWBpULk93ZD53-72" vertex="1">
          <mxGeometry x="40" y="90" width="160" height="28" as="geometry" />
        </mxCell>
        <mxCell id="8j6VqZWyWBpULk93ZD53-80" value="ID Authentication (DB)" style="text;html=1;strokeColor=none;fillColor=none;align=center;verticalAlign=middle;whiteSpace=wrap;rounded=0;fontSize=14;" parent="8j6VqZWyWBpULk93ZD53-72" vertex="1">
          <mxGeometry x="40" y="130" width="160" height="28" as="geometry" />
        </mxCell>
        <mxCell id="8j6VqZWyWBpULk93ZD53-81" value="AC" style="ellipse;whiteSpace=wrap;html=1;fillColor=#dae8fc;strokeColor=#6c8ebf;gradientColor=#7ea6e0;fontStyle=1" parent="8j6VqZWyWBpULk93ZD53-72" vertex="1">
          <mxGeometry x="10" y="161" width="30" height="26" as="geometry" />
        </mxCell>
        <mxCell id="8j6VqZWyWBpULk93ZD53-82" value="Access Control" style="text;html=1;strokeColor=none;fillColor=none;align=center;verticalAlign=middle;whiteSpace=wrap;rounded=0;fontSize=14;" parent="8j6VqZWyWBpULk93ZD53-72" vertex="1">
          <mxGeometry x="40" y="160" width="160" height="28" as="geometry" />
        </mxCell>
        <mxCell id="oByt-uk4F92XMUXTlmi7-10" value="Certificate Authority" style="text;html=1;strokeColor=none;fillColor=none;align=center;verticalAlign=middle;whiteSpace=wrap;rounded=0;fontSize=14;" parent="8j6VqZWyWBpULk93ZD53-72" vertex="1">
          <mxGeometry x="40" y="190" width="160" height="28" as="geometry" />
        </mxCell>
        <mxCell id="oByt-uk4F92XMUXTlmi7-11" value="CA" style="ellipse;whiteSpace=wrap;html=1;fillColor=#dae8fc;strokeColor=#6c8ebf;gradientColor=#7ea6e0;fontStyle=1" parent="8j6VqZWyWBpULk93ZD53-72" vertex="1">
          <mxGeometry x="10" y="191" width="30" height="26" as="geometry" />
        </mxCell>
        <mxCell id="8j6VqZWyWBpULk93ZD53-2" value="" style="rounded=0;whiteSpace=wrap;html=1;strokeWidth=2;fontStyle=1;" parent="1" vertex="1">
          <mxGeometry x="1960" y="690" width="2490" height="300" as="geometry" />
        </mxCell>
        <mxCell id="8j6VqZWyWBpULk93ZD53-6" value="PRIVATE NETWORK&lt;br style=&quot;border-color: var(--border-color);&quot;&gt;SYSTEMS (SERVER)" style="text;html=1;align=center;verticalAlign=middle;resizable=0;points=[];autosize=1;strokeColor=none;fillColor=none;fontStyle=1;fontSize=23;strokeWidth=2;horizontal=0;" parent="1" vertex="1">
          <mxGeometry x="1970" y="1090" width="80" height="240" as="geometry" />
        </mxCell>
        <mxCell id="8j6VqZWyWBpULk93ZD53-62" value="PUBLIC NETWORK&lt;br style=&quot;border-color: var(--border-color);&quot;&gt;SYSTEMS (CLIENT)" style="text;html=1;align=center;verticalAlign=middle;resizable=0;points=[];autosize=1;strokeColor=none;fillColor=none;fontStyle=1;fontSize=23;strokeWidth=2;horizontal=0;" parent="1" vertex="1">
          <mxGeometry x="1970" y="725" width="80" height="230" as="geometry" />
        </mxCell>
        <mxCell id="8j6VqZWyWBpULk93ZD53-88" value="ADMINISTRATOR" style="text;html=1;align=center;verticalAlign=middle;resizable=0;points=[];autosize=1;strokeColor=none;fillColor=none;fontStyle=1;fontSize=23;strokeWidth=2;horizontal=0;" parent="1" vertex="1">
          <mxGeometry x="1980" y="448" width="50" height="200" as="geometry" />
        </mxCell>
        <mxCell id="c3ZWLQ72MxxmwfxnQ8nf-4" style="edgeStyle=orthogonalEdgeStyle;rounded=0;orthogonalLoop=1;jettySize=auto;html=1;exitX=0.5;exitY=1;exitDx=0;exitDy=0;strokeColor=#FF2617;strokeWidth=2;fontStyle=1;entryX=0;entryY=0.5;entryDx=0;entryDy=0;entryPerimeter=0;" parent="1" source="8j6VqZWyWBpULk93ZD53-101" target="RXy6DamFLEHfM2ugey37-26" edge="1">
          <mxGeometry relative="1" as="geometry">
            <mxPoint x="3540" y="1390" as="targetPoint" />
            <Array as="points">
              <mxPoint x="2741" y="1371" />
            </Array>
          </mxGeometry>
        </mxCell>
        <mxCell id="8j6VqZWyWBpULk93ZD53-101" value="IF &lt;br&gt;AUTH. &lt;br&gt;SUCCESS" style="rounded=0;whiteSpace=wrap;html=1;fontStyle=1;strokeWidth=2;fontSize=11;shape=rhombus;perimeter=rhombusPerimeter;" parent="1" vertex="1">
          <mxGeometry x="2688" y="1070" width="105" height="82.25" as="geometry" />
        </mxCell>
        <mxCell id="ba738cxxTfw0AVTlm2XA-3" style="edgeStyle=orthogonalEdgeStyle;rounded=0;orthogonalLoop=1;jettySize=auto;html=1;exitX=1;exitY=0.5;exitDx=0;exitDy=0;exitPerimeter=0;entryX=0;entryY=0.5;entryDx=0;entryDy=0;strokeColor=#00CC00;strokeWidth=2;fontStyle=1;" parent="1" source="8j6VqZWyWBpULk93ZD53-136" target="ba738cxxTfw0AVTlm2XA-1" edge="1">
          <mxGeometry relative="1" as="geometry">
            <mxPoint x="3400" y="1249.5" as="targetPoint" />
          </mxGeometry>
        </mxCell>
        <mxCell id="8j6VqZWyWBpULk93ZD53-136" value="&lt;u style=&quot;border-color: var(--border-color);&quot;&gt;SUBSCRIBER UIN ACCOUNT:&amp;nbsp;&lt;/u&gt;STORE USER ENTERED ATTRIBUTE DETAILS AND&amp;nbsp;VERIFICATION STATUS" style="rounded=0;whiteSpace=wrap;html=1;fontSize=11;fontStyle=1;strokeWidth=2;" parent="1" vertex="1">
          <mxGeometry x="3240" y="1195.25" width="120" height="114.75" as="geometry" />
        </mxCell>
        <mxCell id="8j6VqZWyWBpULk93ZD53-147" value="" style="edgeStyle=orthogonalEdgeStyle;rounded=0;orthogonalLoop=1;jettySize=auto;html=1;strokeColor=#00CC00;fontStyle=1;strokeWidth=2;" parent="1" source="8j6VqZWyWBpULk93ZD53-148" target="8j6VqZWyWBpULk93ZD53-149" edge="1">
          <mxGeometry relative="1" as="geometry" />
        </mxCell>
        <mxCell id="8j6VqZWyWBpULk93ZD53-148" value="LOGS THE PROCESS AND STATUS" style="rounded=0;whiteSpace=wrap;html=1;fontStyle=1;strokeWidth=2;" parent="1" vertex="1">
          <mxGeometry x="4300" y="1182.88" width="120" height="57.12" as="geometry" />
        </mxCell>
        <mxCell id="8j6VqZWyWBpULk93ZD53-149" value="&lt;b&gt;END&lt;/b&gt;" style="strokeWidth=2;html=1;shape=mxgraph.flowchart.terminator;whiteSpace=wrap;fillColor=#f8cecc;strokeColor=#b85450;" parent="1" vertex="1">
          <mxGeometry x="4310" y="1321.88" width="100" height="40" as="geometry" />
        </mxCell>
        <mxCell id="8j6VqZWyWBpULk93ZD53-158" value="HSM" style="ellipse;whiteSpace=wrap;html=1;fillColor=#dae8fc;strokeColor=#6c8ebf;gradientColor=#7ea6e0;fontStyle=1" parent="1" vertex="1">
          <mxGeometry x="3210" y="1257.25" width="30" height="26" as="geometry" />
        </mxCell>
        <mxCell id="8j6VqZWyWBpULk93ZD53-161" value="AC" style="ellipse;whiteSpace=wrap;html=1;fillColor=#dae8fc;strokeColor=#6c8ebf;gradientColor=#7ea6e0;fontStyle=1" parent="1" vertex="1">
          <mxGeometry x="2688" y="1072.87" width="30" height="26" as="geometry" />
        </mxCell>
        <mxCell id="vKcRW2vyYmiQf7ZIil2U-3" value="&lt;font style=&quot;font-size: 14px;&quot;&gt;PUBLIC NETWORK&lt;/font&gt;" style="swimlane;whiteSpace=wrap;html=1;" parent="1" vertex="1">
          <mxGeometry x="4470" y="720" width="200" height="167" as="geometry" />
        </mxCell>
        <mxCell id="vKcRW2vyYmiQf7ZIil2U-4" value="DNS SERVERS" style="text;html=1;strokeColor=none;fillColor=none;align=center;verticalAlign=middle;whiteSpace=wrap;rounded=0;fontSize=14;" parent="vKcRW2vyYmiQf7ZIil2U-3" vertex="1">
          <mxGeometry y="27" width="200" height="28" as="geometry" />
        </mxCell>
        <mxCell id="vKcRW2vyYmiQf7ZIil2U-5" value="FTP SERVERS" style="text;html=1;strokeColor=none;fillColor=none;align=center;verticalAlign=middle;whiteSpace=wrap;rounded=0;fontSize=14;" parent="vKcRW2vyYmiQf7ZIil2U-3" vertex="1">
          <mxGeometry y="55" width="200" height="28" as="geometry" />
        </mxCell>
        <mxCell id="vKcRW2vyYmiQf7ZIil2U-6" value="MAIL SERVERS" style="text;html=1;strokeColor=none;fillColor=none;align=center;verticalAlign=middle;whiteSpace=wrap;rounded=0;fontSize=14;" parent="vKcRW2vyYmiQf7ZIil2U-3" vertex="1">
          <mxGeometry y="83" width="200" height="28" as="geometry" />
        </mxCell>
        <mxCell id="vKcRW2vyYmiQf7ZIil2U-7" value="PROXY SERVERS" style="text;html=1;strokeColor=none;fillColor=none;align=center;verticalAlign=middle;whiteSpace=wrap;rounded=0;fontSize=14;" parent="vKcRW2vyYmiQf7ZIil2U-3" vertex="1">
          <mxGeometry y="111" width="200" height="28" as="geometry" />
        </mxCell>
        <mxCell id="vKcRW2vyYmiQf7ZIil2U-8" value="WEB SERVERS" style="text;html=1;strokeColor=none;fillColor=none;align=center;verticalAlign=middle;whiteSpace=wrap;rounded=0;fontSize=14;" parent="vKcRW2vyYmiQf7ZIil2U-3" vertex="1">
          <mxGeometry y="139" width="200" height="28" as="geometry" />
        </mxCell>
        <mxCell id="oByt-uk4F92XMUXTlmi7-1" value="USER" style="shape=umlActor;verticalLabelPosition=bottom;verticalAlign=top;html=1;outlineConnect=0;fontStyle=1" parent="1" vertex="1">
          <mxGeometry x="2040" y="220" width="30" height="60" as="geometry" />
        </mxCell>
        <mxCell id="oByt-uk4F92XMUXTlmi7-2" value="ADMIN" style="shape=umlActor;verticalLabelPosition=bottom;verticalAlign=top;html=1;outlineConnect=0;fontStyle=1" parent="1" vertex="1">
          <mxGeometry x="2050" y="509.67" width="30" height="60" as="geometry" />
        </mxCell>
        <mxCell id="RXy6DamFLEHfM2ugey37-33" style="edgeStyle=orthogonalEdgeStyle;rounded=0;orthogonalLoop=1;jettySize=auto;html=1;exitX=0.5;exitY=1;exitDx=0;exitDy=0;strokeColor=#00CC00;strokeWidth=2;fontStyle=1;entryX=0.5;entryY=0;entryDx=0;entryDy=0;" parent="1" source="RXy6DamFLEHfM2ugey37-1" target="RXy6DamFLEHfM2ugey37-34" edge="1">
          <mxGeometry relative="1" as="geometry">
            <mxPoint x="3397" y="765.5" as="targetPoint" />
          </mxGeometry>
        </mxCell>
        <mxCell id="RXy6DamFLEHfM2ugey37-1" value="UPLOAD SUPPORTING POA" style="rounded=0;whiteSpace=wrap;html=1;fontStyle=1;strokeWidth=2;fontSize=11;shape=parallelogram;perimeter=parallelogramPerimeter;fixedSize=1;" parent="1" vertex="1">
          <mxGeometry x="3015" y="246.5" width="100" height="60" as="geometry" />
        </mxCell>
        <mxCell id="RXy6DamFLEHfM2ugey37-2" value="UPDATING ONLINE: PERSONALLY IDENTIFIABLE INFORMATION" style="text;html=1;align=center;verticalAlign=middle;resizable=0;points=[];autosize=1;strokeColor=none;fillColor=none;fontStyle=1;strokeWidth=2;fontSize=23;" parent="1" vertex="1">
          <mxGeometry x="3709" y="60" width="740" height="40" as="geometry" />
        </mxCell>
        <mxCell id="RXy6DamFLEHfM2ugey37-3" value="VISIT DID PORTAL" style="rounded=0;whiteSpace=wrap;html=1;fontStyle=1;strokeWidth=2;fontSize=11;" parent="1" vertex="1">
          <mxGeometry x="2220" y="190" width="120" height="40" as="geometry" />
        </mxCell>
        <mxCell id="bOGRKbOoEIt-_d6ExcWd-28" style="edgeStyle=orthogonalEdgeStyle;rounded=0;orthogonalLoop=1;jettySize=auto;html=1;exitX=0.5;exitY=1;exitDx=0;exitDy=0;strokeColor=#00CC00;strokeWidth=2;fontStyle=1;" parent="1" source="7Viw_nb1XbYWwF930zh5-1" target="RXy6DamFLEHfM2ugey37-6" edge="1">
          <mxGeometry relative="1" as="geometry" />
        </mxCell>
        <mxCell id="RXy6DamFLEHfM2ugey37-4" value="&lt;u&gt;HOMEPAGE&lt;/u&gt;&lt;br&gt;NAVIGATE TO:&lt;br&gt;SETTINGS-&amp;gt;ACCOUNT DETAILS-&amp;gt;&lt;i&gt;&lt;u&gt;UPDATE SECONDARY ATTRIBUTES&lt;/u&gt;&lt;/i&gt;" style="rounded=0;whiteSpace=wrap;html=1;fontStyle=1;strokeWidth=2;fontSize=11;" parent="1" vertex="1">
          <mxGeometry x="2512.5" y="143.5" width="130" height="90" as="geometry" />
        </mxCell>
        <mxCell id="RXy6DamFLEHfM2ugey37-11" style="edgeStyle=orthogonalEdgeStyle;rounded=0;orthogonalLoop=1;jettySize=auto;html=1;exitX=0.75;exitY=1;exitDx=0;exitDy=0;entryX=0.5;entryY=0;entryDx=0;entryDy=0;strokeColor=#00CC00;strokeWidth=2;fontStyle=1;" parent="1" source="RXy6DamFLEHfM2ugey37-6" target="8j6VqZWyWBpULk93ZD53-101" edge="1">
          <mxGeometry relative="1" as="geometry" />
        </mxCell>
        <mxCell id="RXy6DamFLEHfM2ugey37-6" value="AUTHENTICATE USING (ONE):&lt;br&gt;PASSWORD: &lt;u&gt;AU.1.B&lt;/u&gt;&lt;br&gt;OTP: &lt;u&gt;AU.2.C&lt;/u&gt;&lt;br&gt;PIN: &lt;u&gt;AU.1.F&lt;/u&gt;&lt;br&gt;MEM. SECRET: &lt;u&gt;AU.1.D&lt;/u&gt;" style="rounded=0;whiteSpace=wrap;html=1;fontStyle=1;strokeWidth=2;fontSize=11;" parent="1" vertex="1">
          <mxGeometry x="2620" y="280" width="160" height="95" as="geometry" />
        </mxCell>
        <mxCell id="RXy6DamFLEHfM2ugey37-21" style="edgeStyle=orthogonalEdgeStyle;rounded=0;orthogonalLoop=1;jettySize=auto;html=1;exitX=0.5;exitY=1;exitDx=0;exitDy=0;entryX=0.5;entryY=0;entryDx=0;entryDy=0;strokeColor=#00CC00;strokeWidth=2;fontStyle=1;" parent="1" source="RXy6DamFLEHfM2ugey37-7" edge="1">
          <mxGeometry relative="1" as="geometry">
            <mxPoint x="3300" y="1195.25" as="targetPoint" />
          </mxGeometry>
        </mxCell>
        <mxCell id="bOGRKbOoEIt-_d6ExcWd-35" style="edgeStyle=orthogonalEdgeStyle;rounded=0;orthogonalLoop=1;jettySize=auto;html=1;exitX=0.5;exitY=1;exitDx=0;exitDy=0;entryX=0.5;entryY=0;entryDx=0;entryDy=0;strokeColor=#00CC00;strokeWidth=2;fontStyle=1;" parent="1" source="RXy6DamFLEHfM2ugey37-14" target="bOGRKbOoEIt-_d6ExcWd-34" edge="1">
          <mxGeometry relative="1" as="geometry" />
        </mxCell>
        <mxCell id="bOGRKbOoEIt-_d6ExcWd-53" style="edgeStyle=orthogonalEdgeStyle;rounded=0;orthogonalLoop=1;jettySize=auto;html=1;exitX=1;exitY=0.5;exitDx=0;exitDy=0;entryX=0;entryY=0.5;entryDx=0;entryDy=0;strokeColor=#FF2617;strokeWidth=2;fontStyle=1;" parent="1" source="RXy6DamFLEHfM2ugey37-14" target="bOGRKbOoEIt-_d6ExcWd-50" edge="1">
          <mxGeometry relative="1" as="geometry" />
        </mxCell>
        <mxCell id="RXy6DamFLEHfM2ugey37-14" value="IF&lt;br&gt;&amp;nbsp;UPDATE&amp;nbsp;&amp;nbsp;&lt;br&gt;ADDRESS" style="rounded=0;whiteSpace=wrap;html=1;fontStyle=1;strokeWidth=2;fontSize=11;shape=rhombus;perimeter=rhombusPerimeter;" parent="1" vertex="1">
          <mxGeometry x="2840" y="143" width="130" height="85.5" as="geometry" />
        </mxCell>
        <mxCell id="bOGRKbOoEIt-_d6ExcWd-81" style="edgeStyle=orthogonalEdgeStyle;rounded=0;orthogonalLoop=1;jettySize=auto;html=1;exitX=1;exitY=0.5;exitDx=0;exitDy=0;exitPerimeter=0;entryX=0.5;entryY=1;entryDx=0;entryDy=0;strokeColor=#00CC00;strokeWidth=2;fontStyle=1;" parent="1" source="RXy6DamFLEHfM2ugey37-26" target="bOGRKbOoEIt-_d6ExcWd-80" edge="1">
          <mxGeometry relative="1" as="geometry" />
        </mxCell>
        <mxCell id="RXy6DamFLEHfM2ugey37-26" value="&lt;span style=&quot;border-color: var(--border-color);&quot;&gt;&lt;b&gt;TERMINATE PROCESS:&lt;br&gt;&lt;/b&gt;LOCK UIN ACCOUNT FOR 24 HOURS&lt;br&gt;&lt;/span&gt;" style="strokeWidth=2;html=1;shape=mxgraph.flowchart.terminator;whiteSpace=wrap;fillColor=#f8cecc;strokeColor=#b85450;" parent="1" vertex="1">
          <mxGeometry x="3560" y="1346.5" width="220" height="49" as="geometry" />
        </mxCell>
        <mxCell id="RXy6DamFLEHfM2ugey37-27" value="KR" style="ellipse;whiteSpace=wrap;html=1;fillColor=#dae8fc;strokeColor=#6c8ebf;gradientColor=#7ea6e0;fontStyle=1" parent="1" vertex="1">
          <mxGeometry x="3567.5" y="1335.88" width="30" height="26" as="geometry" />
        </mxCell>
        <mxCell id="RXy6DamFLEHfM2ugey37-40" style="edgeStyle=orthogonalEdgeStyle;rounded=0;orthogonalLoop=1;jettySize=auto;html=1;exitX=1;exitY=0.5;exitDx=0;exitDy=0;strokeColor=#00CC00;strokeWidth=2;fontStyle=1;" parent="1" source="RXy6DamFLEHfM2ugey37-38" target="8j6VqZWyWBpULk93ZD53-136" edge="1">
          <mxGeometry relative="1" as="geometry">
            <Array as="points">
              <mxPoint x="3140" y="1070" />
              <mxPoint x="3257" y="1070" />
            </Array>
            <mxPoint x="3257" y="1190" as="targetPoint" />
          </mxGeometry>
        </mxCell>
        <mxCell id="BMonkDble42DqSNHNsjH-4" style="edgeStyle=orthogonalEdgeStyle;rounded=0;orthogonalLoop=1;jettySize=auto;html=1;exitX=0.5;exitY=1;exitDx=0;exitDy=0;entryX=0.5;entryY=0;entryDx=0;entryDy=0;strokeColor=#FF2617;strokeWidth=2;fontStyle=1;" parent="1" source="BMonkDble42DqSNHNsjH-3" target="BMonkDble42DqSNHNsjH-2" edge="1">
          <mxGeometry relative="1" as="geometry" />
        </mxCell>
        <mxCell id="RXy6DamFLEHfM2ugey37-38" value="IF &lt;br&gt;FILE SIZE AND FORMAT &lt;br&gt;ACCEPTABLE" style="rounded=0;whiteSpace=wrap;html=1;fontStyle=1;strokeWidth=2;fontSize=11;shape=rhombus;perimeter=rhombusPerimeter;" parent="1" vertex="1">
          <mxGeometry x="2988.88" y="859.5" width="151.25" height="80.5" as="geometry" />
        </mxCell>
        <mxCell id="ba738cxxTfw0AVTlm2XA-1" value="IF &lt;br&gt;UPDATE REQUEST FOR ADDRESS" style="rounded=0;whiteSpace=wrap;html=1;fontStyle=1;strokeWidth=2;fontSize=11;shape=rhombus;perimeter=rhombusPerimeter;" parent="1" vertex="1">
          <mxGeometry x="3400" y="1207.62" width="120" height="90" as="geometry" />
        </mxCell>
        <mxCell id="ba738cxxTfw0AVTlm2XA-5" value="VALIDATE POA: &lt;u&gt;OB.2.A&lt;/u&gt;" style="rounded=0;whiteSpace=wrap;html=1;fontStyle=1;strokeWidth=2;fontSize=11;" parent="1" vertex="1">
          <mxGeometry x="3411.25" y="514.51" width="97.5" height="50.33" as="geometry" />
        </mxCell>
        <mxCell id="bOGRKbOoEIt-_d6ExcWd-48" style="edgeStyle=orthogonalEdgeStyle;rounded=0;orthogonalLoop=1;jettySize=auto;html=1;exitX=0.5;exitY=0;exitDx=0;exitDy=0;entryX=0.5;entryY=1;entryDx=0;entryDy=0;strokeColor=#00CC00;strokeWidth=2;fontStyle=1;" parent="1" source="ba738cxxTfw0AVTlm2XA-8" target="ba738cxxTfw0AVTlm2XA-9" edge="1">
          <mxGeometry relative="1" as="geometry" />
        </mxCell>
        <mxCell id="ba738cxxTfw0AVTlm2XA-8" value="RECEIVE OTP TO NEW EMAIL/ PHONE NUMBER" style="rounded=0;whiteSpace=wrap;html=1;fontStyle=1;strokeWidth=2;fontSize=11;" parent="1" vertex="1">
          <mxGeometry x="3750" y="293.99999999999994" width="135" height="60" as="geometry" />
        </mxCell>
        <mxCell id="bOGRKbOoEIt-_d6ExcWd-75" style="edgeStyle=orthogonalEdgeStyle;rounded=0;orthogonalLoop=1;jettySize=auto;html=1;exitX=1;exitY=0.5;exitDx=0;exitDy=0;entryX=0.5;entryY=0;entryDx=0;entryDy=0;strokeColor=#00CC00;strokeWidth=2;fontStyle=1;" parent="1" source="ba738cxxTfw0AVTlm2XA-9" target="bOGRKbOoEIt-_d6ExcWd-69" edge="1">
          <mxGeometry relative="1" as="geometry" />
        </mxCell>
        <mxCell id="ba738cxxTfw0AVTlm2XA-9" value="AUTHENTICATE WITH RECEIVED OTP: &lt;u&gt;AU.2.C&lt;/u&gt;" style="rounded=0;whiteSpace=wrap;html=1;fontStyle=1;strokeWidth=2;fontSize=11;" parent="1" vertex="1">
          <mxGeometry x="3750" y="206.49999999999994" width="135" height="60" as="geometry" />
        </mxCell>
        <mxCell id="bOGRKbOoEIt-_d6ExcWd-17" value="" style="edgeStyle=orthogonalEdgeStyle;rounded=0;orthogonalLoop=1;jettySize=auto;html=1;exitX=1;exitY=0.5;exitDx=0;exitDy=0;entryX=0.25;entryY=1;entryDx=0;entryDy=0;strokeColor=#00CC00;strokeWidth=2;fontStyle=1;" parent="1" source="bOGRKbOoEIt-_d6ExcWd-1" target="bOGRKbOoEIt-_d6ExcWd-16" edge="1">
          <mxGeometry x="-0.7474" relative="1" as="geometry">
            <mxPoint as="offset" />
          </mxGeometry>
        </mxCell>
        <mxCell id="bOGRKbOoEIt-_d6ExcWd-1" value="IF &lt;br&gt;PASS. AUTH. SUCCESS" style="rounded=0;whiteSpace=wrap;html=1;fontStyle=1;strokeWidth=2;fontSize=11;shape=rhombus;perimeter=rhombusPerimeter;" parent="1" vertex="1">
          <mxGeometry x="2230" y="1068.5" width="100" height="78.25" as="geometry" />
        </mxCell>
        <mxCell id="bOGRKbOoEIt-_d6ExcWd-8" value="" style="edgeStyle=orthogonalEdgeStyle;rounded=0;orthogonalLoop=1;jettySize=auto;html=1;exitX=0.5;exitY=1;exitDx=0;exitDy=0;entryX=0.5;entryY=0;entryDx=0;entryDy=0;strokeColor=#00CC00;strokeWidth=2;fontStyle=1;" parent="1" source="RXy6DamFLEHfM2ugey37-3" target="bOGRKbOoEIt-_d6ExcWd-7" edge="1">
          <mxGeometry relative="1" as="geometry">
            <mxPoint x="2280" y="230" as="sourcePoint" />
            <mxPoint x="2200" y="1100" as="targetPoint" />
          </mxGeometry>
        </mxCell>
        <mxCell id="bOGRKbOoEIt-_d6ExcWd-12" style="edgeStyle=orthogonalEdgeStyle;rounded=0;orthogonalLoop=1;jettySize=auto;html=1;exitX=0;exitY=0.5;exitDx=0;exitDy=0;entryX=0.5;entryY=0;entryDx=0;entryDy=0;strokeColor=#FF2617;strokeWidth=2;fontStyle=1;" parent="1" source="bOGRKbOoEIt-_d6ExcWd-7" target="bOGRKbOoEIt-_d6ExcWd-11" edge="1">
          <mxGeometry relative="1" as="geometry" />
        </mxCell>
        <mxCell id="bOGRKbOoEIt-_d6ExcWd-7" value="IF&lt;br&gt;ACCOUNT &lt;br&gt;ACTIVE" style="rounded=0;whiteSpace=wrap;html=1;fontStyle=1;strokeWidth=2;fontSize=11;shape=rhombus;perimeter=rhombusPerimeter;" parent="1" vertex="1">
          <mxGeometry x="2230" y="255.5" width="100" height="65" as="geometry" />
        </mxCell>
        <mxCell id="bOGRKbOoEIt-_d6ExcWd-11" value="ACTIVATION OF DID ACCOUNT&lt;br&gt;&lt;u&gt;OB.4.D&lt;/u&gt;" style="rounded=0;whiteSpace=wrap;html=1;fontStyle=1;strokeWidth=2;fontSize=11;" parent="1" vertex="1">
          <mxGeometry x="2100" y="320.5" width="100" height="40" as="geometry" />
        </mxCell>
        <mxCell id="bOGRKbOoEIt-_d6ExcWd-14" value="" style="edgeStyle=orthogonalEdgeStyle;rounded=0;orthogonalLoop=1;jettySize=auto;html=1;exitX=0.5;exitY=1;exitDx=0;exitDy=0;entryX=0.5;entryY=0;entryDx=0;entryDy=0;strokeColor=#00CC00;strokeWidth=2;fontStyle=1;" parent="1" source="bOGRKbOoEIt-_d6ExcWd-7" target="bOGRKbOoEIt-_d6ExcWd-13" edge="1">
          <mxGeometry relative="1" as="geometry">
            <mxPoint x="2280" y="322" as="sourcePoint" />
            <mxPoint x="2210" y="1060" as="targetPoint" />
          </mxGeometry>
        </mxCell>
        <mxCell id="bOGRKbOoEIt-_d6ExcWd-13" value="LOGIN - PASS. AUTH.:&lt;br&gt;&lt;u&gt;AU.1.B&lt;/u&gt;" style="rounded=0;whiteSpace=wrap;html=1;fontStyle=1;strokeWidth=2;fontSize=11;" parent="1" vertex="1">
          <mxGeometry x="2225" y="338.5" width="110" height="50" as="geometry" />
        </mxCell>
        <mxCell id="bOGRKbOoEIt-_d6ExcWd-15" value="" style="edgeStyle=orthogonalEdgeStyle;rounded=0;orthogonalLoop=1;jettySize=auto;html=1;exitX=0.5;exitY=1;exitDx=0;exitDy=0;entryX=0.5;entryY=0;entryDx=0;entryDy=0;strokeColor=#00CC00;strokeWidth=2;fontStyle=1;" parent="1" source="bOGRKbOoEIt-_d6ExcWd-13" target="bOGRKbOoEIt-_d6ExcWd-1" edge="1">
          <mxGeometry relative="1" as="geometry">
            <mxPoint x="2280" y="380" as="sourcePoint" />
            <mxPoint x="2280" y="786.75" as="targetPoint" />
          </mxGeometry>
        </mxCell>
        <mxCell id="bOGRKbOoEIt-_d6ExcWd-24" style="edgeStyle=orthogonalEdgeStyle;rounded=0;orthogonalLoop=1;jettySize=auto;html=1;exitX=1;exitY=0.5;exitDx=0;exitDy=0;entryX=0.5;entryY=0;entryDx=0;entryDy=0;strokeColor=#00CC00;strokeWidth=2;fontStyle=1;" parent="1" source="bOGRKbOoEIt-_d6ExcWd-16" target="bOGRKbOoEIt-_d6ExcWd-23" edge="1">
          <mxGeometry relative="1" as="geometry" />
        </mxCell>
        <mxCell id="bOGRKbOoEIt-_d6ExcWd-16" value="2FA USING (ONE)&lt;br&gt;OTP: &lt;u&gt;AU.2.C&lt;/u&gt;&lt;br&gt;PIN: &lt;u&gt;AU.1.F&lt;/u&gt;&lt;br&gt;MEM. SECRET: &lt;u&gt;AU.1.D&lt;/u&gt;" style="rounded=0;whiteSpace=wrap;html=1;fontStyle=1;strokeWidth=2;fontSize=11;" parent="1" vertex="1">
          <mxGeometry x="2350" y="288" width="130" height="80" as="geometry" />
        </mxCell>
        <mxCell id="bOGRKbOoEIt-_d6ExcWd-27" value="" style="edgeStyle=orthogonalEdgeStyle;rounded=0;orthogonalLoop=1;jettySize=auto;html=1;exitX=1;exitY=0.5;exitDx=0;exitDy=0;entryX=0.5;entryY=1;entryDx=0;entryDy=0;strokeColor=#00CC00;strokeWidth=2;fontStyle=1;" parent="1" source="bOGRKbOoEIt-_d6ExcWd-23" target="RXy6DamFLEHfM2ugey37-4" edge="1">
          <mxGeometry x="-0.8229" relative="1" as="geometry">
            <mxPoint as="offset" />
            <Array as="points">
              <mxPoint x="2578" y="1109" />
            </Array>
          </mxGeometry>
        </mxCell>
        <mxCell id="c3ZWLQ72MxxmwfxnQ8nf-3" style="edgeStyle=orthogonalEdgeStyle;rounded=0;orthogonalLoop=1;jettySize=auto;html=1;exitX=0.5;exitY=1;exitDx=0;exitDy=0;strokeColor=#FF2617;strokeWidth=2;fontStyle=1;entryX=0;entryY=0.5;entryDx=0;entryDy=0;entryPerimeter=0;" parent="1" source="bOGRKbOoEIt-_d6ExcWd-23" target="RXy6DamFLEHfM2ugey37-26" edge="1">
          <mxGeometry relative="1" as="geometry">
            <mxPoint x="3540" y="1400" as="targetPoint" />
            <Array as="points">
              <mxPoint x="2518" y="1371" />
            </Array>
          </mxGeometry>
        </mxCell>
        <mxCell id="bOGRKbOoEIt-_d6ExcWd-23" value="IF &lt;br&gt;2FA &lt;br&gt;SUCCESS" style="rounded=0;whiteSpace=wrap;html=1;fontStyle=1;strokeWidth=2;fontSize=11;shape=rhombus;perimeter=rhombusPerimeter;" parent="1" vertex="1">
          <mxGeometry x="2467.5" y="1068.5" width="100" height="81.5" as="geometry" />
        </mxCell>
        <mxCell id="bOGRKbOoEIt-_d6ExcWd-29" value="AC" style="ellipse;whiteSpace=wrap;html=1;fillColor=#dae8fc;strokeColor=#6c8ebf;gradientColor=#7ea6e0;fontStyle=1" parent="1" vertex="1">
          <mxGeometry x="2470" y="1068.5" width="30" height="26" as="geometry" />
        </mxCell>
        <mxCell id="bOGRKbOoEIt-_d6ExcWd-30" value="AC" style="ellipse;whiteSpace=wrap;html=1;fillColor=#dae8fc;strokeColor=#6c8ebf;gradientColor=#7ea6e0;fontStyle=1" parent="1" vertex="1">
          <mxGeometry x="2230" y="1068.5" width="30" height="26" as="geometry" />
        </mxCell>
        <mxCell id="1M-3q-qzIehcEhA_BtTH-1" style="edgeStyle=orthogonalEdgeStyle;rounded=0;orthogonalLoop=1;jettySize=auto;html=1;exitX=1;exitY=0.5;exitDx=0;exitDy=0;entryX=0;entryY=0.5;entryDx=0;entryDy=0;strokeColor=#00CC00;strokeWidth=2;fontStyle=1;" parent="1" source="bOGRKbOoEIt-_d6ExcWd-34" target="RXy6DamFLEHfM2ugey37-1" edge="1">
          <mxGeometry relative="1" as="geometry" />
        </mxCell>
        <mxCell id="bOGRKbOoEIt-_d6ExcWd-34" value="ENTER NEW ADDRESS MANUALLY&amp;nbsp;" style="rounded=0;whiteSpace=wrap;html=1;fontStyle=1;strokeWidth=2;fontSize=11;shape=parallelogram;perimeter=parallelogramPerimeter;fixedSize=1;" parent="1" vertex="1">
          <mxGeometry x="2850" y="252" width="110" height="48" as="geometry" />
        </mxCell>
        <mxCell id="bOGRKbOoEIt-_d6ExcWd-37" value="" style="group" parent="1" vertex="1" connectable="0">
          <mxGeometry x="2977" y="747" width="145" height="78" as="geometry" />
        </mxCell>
        <mxCell id="RXy6DamFLEHfM2ugey37-34" value="MASK &amp;amp; ENCRYPT REQUESTED&amp;nbsp; CHANGE OF ADDRESS AND POA SCAN COPY" style="rounded=0;whiteSpace=wrap;html=1;fontStyle=1;strokeWidth=2;fontSize=11;" parent="bOGRKbOoEIt-_d6ExcWd-37" vertex="1">
          <mxGeometry x="30" y="4.3799999999999955" width="115" height="69.25" as="geometry" />
        </mxCell>
        <mxCell id="RXy6DamFLEHfM2ugey37-35" value="KM" style="ellipse;whiteSpace=wrap;html=1;fillColor=#dae8fc;strokeColor=#6c8ebf;gradientColor=#7ea6e0;fontStyle=1" parent="bOGRKbOoEIt-_d6ExcWd-37" vertex="1">
          <mxGeometry width="30" height="26" as="geometry" />
        </mxCell>
        <mxCell id="RXy6DamFLEHfM2ugey37-36" value="HSM" style="ellipse;whiteSpace=wrap;html=1;fillColor=#dae8fc;strokeColor=#6c8ebf;gradientColor=#7ea6e0;fontStyle=1" parent="bOGRKbOoEIt-_d6ExcWd-37" vertex="1">
          <mxGeometry y="26" width="30" height="26" as="geometry" />
        </mxCell>
        <mxCell id="RXy6DamFLEHfM2ugey37-37" value="CA" style="ellipse;whiteSpace=wrap;html=1;fillColor=#dae8fc;strokeColor=#6c8ebf;gradientColor=#7ea6e0;fontStyle=1" parent="bOGRKbOoEIt-_d6ExcWd-37" vertex="1">
          <mxGeometry y="52" width="30" height="26" as="geometry" />
        </mxCell>
        <mxCell id="bOGRKbOoEIt-_d6ExcWd-38" style="edgeStyle=orthogonalEdgeStyle;rounded=0;orthogonalLoop=1;jettySize=auto;html=1;exitX=0.5;exitY=1;exitDx=0;exitDy=0;entryX=0.5;entryY=0;entryDx=0;entryDy=0;strokeColor=#00CC00;strokeWidth=2;fontStyle=1;" parent="1" source="RXy6DamFLEHfM2ugey37-34" target="RXy6DamFLEHfM2ugey37-38" edge="1">
          <mxGeometry relative="1" as="geometry" />
        </mxCell>
        <mxCell id="bOGRKbOoEIt-_d6ExcWd-40" value="" style="group" parent="1" vertex="1" connectable="0">
          <mxGeometry x="3213" y="840" width="145" height="80.25" as="geometry" />
        </mxCell>
        <mxCell id="RXy6DamFLEHfM2ugey37-7" value="MASK &amp;amp; ENCRYPT REQUESTED CHANGE OF EMAIL/PHONE NUMBER" style="rounded=0;whiteSpace=wrap;html=1;fontStyle=1;strokeWidth=2;fontSize=11;" parent="bOGRKbOoEIt-_d6ExcWd-40" vertex="1">
          <mxGeometry x="30" y="0.25" width="115" height="80" as="geometry" />
        </mxCell>
        <mxCell id="RXy6DamFLEHfM2ugey37-8" value="KM" style="ellipse;whiteSpace=wrap;html=1;fillColor=#dae8fc;strokeColor=#6c8ebf;gradientColor=#7ea6e0;fontStyle=1" parent="bOGRKbOoEIt-_d6ExcWd-40" vertex="1">
          <mxGeometry width="30" height="26" as="geometry" />
        </mxCell>
        <mxCell id="RXy6DamFLEHfM2ugey37-9" value="HSM" style="ellipse;whiteSpace=wrap;html=1;fillColor=#dae8fc;strokeColor=#6c8ebf;gradientColor=#7ea6e0;fontStyle=1" parent="bOGRKbOoEIt-_d6ExcWd-40" vertex="1">
          <mxGeometry y="26" width="30" height="26" as="geometry" />
        </mxCell>
        <mxCell id="RXy6DamFLEHfM2ugey37-10" value="CA" style="ellipse;whiteSpace=wrap;html=1;fillColor=#dae8fc;strokeColor=#6c8ebf;gradientColor=#7ea6e0;fontStyle=1" parent="bOGRKbOoEIt-_d6ExcWd-40" vertex="1">
          <mxGeometry y="52" width="30" height="26" as="geometry" />
        </mxCell>
        <mxCell id="bOGRKbOoEIt-_d6ExcWd-45" value="" style="edgeStyle=orthogonalEdgeStyle;rounded=0;orthogonalLoop=1;jettySize=auto;html=1;exitX=1;exitY=0.5;exitDx=0;exitDy=0;entryX=0;entryY=0.5;entryDx=0;entryDy=0;strokeColor=#FF2617;strokeWidth=2;fontStyle=1;" parent="1" source="ba738cxxTfw0AVTlm2XA-1" target="bOGRKbOoEIt-_d6ExcWd-44" edge="1">
          <mxGeometry relative="1" as="geometry">
            <mxPoint x="3756" y="358" as="targetPoint" />
            <mxPoint x="3520" y="1249" as="sourcePoint" />
          </mxGeometry>
        </mxCell>
        <mxCell id="bOGRKbOoEIt-_d6ExcWd-44" value="IF &lt;br&gt;UPDATE REQUEST FOR CONTACT" style="rounded=0;whiteSpace=wrap;html=1;fontStyle=1;strokeWidth=2;fontSize=11;shape=rhombus;perimeter=rhombusPerimeter;" parent="1" vertex="1">
          <mxGeometry x="3560" y="1207.62" width="120" height="90" as="geometry" />
        </mxCell>
        <mxCell id="bOGRKbOoEIt-_d6ExcWd-54" value="&lt;font style=&quot;font-size: 9px;&quot;&gt;UPDATE VERIFICATION &lt;br&gt;STATUS: SUCCESS&lt;/font&gt;" style="edgeStyle=orthogonalEdgeStyle;rounded=0;orthogonalLoop=1;jettySize=auto;html=1;exitX=0;exitY=0;exitDx=0;exitDy=0;entryX=0.701;entryY=0.007;entryDx=0;entryDy=0;entryPerimeter=0;strokeColor=#00CC00;strokeWidth=2;fontStyle=1;startArrow=classic;startFill=1;" parent="1" source="bOGRKbOoEIt-_d6ExcWd-46" target="8j6VqZWyWBpULk93ZD53-136" edge="1">
          <mxGeometry x="-0.0011" y="-22" relative="1" as="geometry">
            <mxPoint as="offset" />
          </mxGeometry>
        </mxCell>
        <mxCell id="bOGRKbOoEIt-_d6ExcWd-59" style="edgeStyle=orthogonalEdgeStyle;rounded=0;orthogonalLoop=1;jettySize=auto;html=1;exitX=0;exitY=1;exitDx=0;exitDy=0;strokeColor=#FF2617;strokeWidth=2;fontStyle=1;startArrow=classic;startFill=1;entryX=0.86;entryY=-0.005;entryDx=0;entryDy=0;entryPerimeter=0;" parent="1" source="bOGRKbOoEIt-_d6ExcWd-46" target="8j6VqZWyWBpULk93ZD53-136" edge="1">
          <mxGeometry relative="1" as="geometry" />
        </mxCell>
        <mxCell id="bOGRKbOoEIt-_d6ExcWd-60" value="&lt;b style=&quot;font-size: 9px;&quot;&gt;UPDATE&lt;br&gt;VERIFICATION STATUS: &lt;br&gt;FAIL&lt;/b&gt;" style="edgeLabel;html=1;align=center;verticalAlign=middle;resizable=0;points=[];" parent="bOGRKbOoEIt-_d6ExcWd-59" vertex="1" connectable="0">
          <mxGeometry x="-0.1054" y="-1" relative="1" as="geometry">
            <mxPoint x="-17" y="27" as="offset" />
          </mxGeometry>
        </mxCell>
        <mxCell id="bOGRKbOoEIt-_d6ExcWd-46" value="IF POA&lt;br&gt;&amp;nbsp;VERIFICATION SUCCESS" style="rounded=0;whiteSpace=wrap;html=1;fontStyle=1;strokeWidth=2;fontSize=11;shape=rhombus;perimeter=rhombusPerimeter;" parent="1" vertex="1">
          <mxGeometry x="3485" y="1101.75" width="135" height="60" as="geometry" />
        </mxCell>
        <mxCell id="bOGRKbOoEIt-_d6ExcWd-66" style="edgeStyle=orthogonalEdgeStyle;rounded=0;orthogonalLoop=1;jettySize=auto;html=1;exitX=0.5;exitY=1;exitDx=0;exitDy=0;entryX=0.5;entryY=0;entryDx=0;entryDy=0;strokeColor=#00CC00;strokeWidth=2;fontStyle=1;" parent="1" source="bOGRKbOoEIt-_d6ExcWd-67" target="RXy6DamFLEHfM2ugey37-7" edge="1">
          <mxGeometry relative="1" as="geometry" />
        </mxCell>
        <mxCell id="bOGRKbOoEIt-_d6ExcWd-87" style="edgeStyle=orthogonalEdgeStyle;rounded=0;orthogonalLoop=1;jettySize=auto;html=1;exitX=0.5;exitY=0;exitDx=0;exitDy=0;strokeColor=#FF2617;strokeWidth=2;fontStyle=1;" parent="1" source="bOGRKbOoEIt-_d6ExcWd-50" target="8j6VqZWyWBpULk93ZD53-148" edge="1">
          <mxGeometry relative="1" as="geometry">
            <Array as="points">
              <mxPoint x="3300" y="140" />
              <mxPoint x="4403" y="140" />
            </Array>
          </mxGeometry>
        </mxCell>
        <mxCell id="bOGRKbOoEIt-_d6ExcWd-50" value="IF&lt;br&gt;UPDATE CONTACT: EMAIL/PHONE" style="rounded=0;whiteSpace=wrap;html=1;fontStyle=1;strokeWidth=2;fontSize=11;shape=rhombus;perimeter=rhombusPerimeter;" parent="1" vertex="1">
          <mxGeometry x="3233" y="143.5" width="135" height="85.5" as="geometry" />
        </mxCell>
        <mxCell id="bOGRKbOoEIt-_d6ExcWd-62" style="edgeStyle=orthogonalEdgeStyle;rounded=0;orthogonalLoop=1;jettySize=auto;html=1;exitX=0.5;exitY=0;exitDx=0;exitDy=0;strokeColor=#00CC00;strokeWidth=2;fontStyle=1;" parent="1" source="bOGRKbOoEIt-_d6ExcWd-56" target="8j6VqZWyWBpULk93ZD53-148" edge="1">
          <mxGeometry relative="1" as="geometry">
            <Array as="points">
              <mxPoint x="3650" y="180" />
              <mxPoint x="4360" y="180" />
            </Array>
          </mxGeometry>
        </mxCell>
        <mxCell id="bOGRKbOoEIt-_d6ExcWd-86" style="edgeStyle=orthogonalEdgeStyle;rounded=0;orthogonalLoop=1;jettySize=auto;html=1;exitX=0;exitY=0.5;exitDx=0;exitDy=0;entryX=1;entryY=0.5;entryDx=0;entryDy=0;strokeColor=#00CC00;strokeWidth=2;fontStyle=1;" parent="1" source="bOGRKbOoEIt-_d6ExcWd-56" target="bOGRKbOoEIt-_d6ExcWd-50" edge="1">
          <mxGeometry relative="1" as="geometry" />
        </mxCell>
        <mxCell id="bOGRKbOoEIt-_d6ExcWd-56" value="RECEIVE ADDRESS UPDATE SUCCESS/FAIL NOTIFICATION" style="rounded=0;whiteSpace=wrap;html=1;fontStyle=1;strokeWidth=2;fontSize=11;" parent="1" vertex="1">
          <mxGeometry x="3582.5" y="293.99999999999994" width="135" height="60" as="geometry" />
        </mxCell>
        <mxCell id="RXy6DamFLEHfM2ugey37-17" value="" style="edgeStyle=orthogonalEdgeStyle;rounded=0;orthogonalLoop=1;jettySize=auto;html=1;exitX=1;exitY=0.5;exitDx=0;exitDy=0;entryX=0;entryY=0.5;entryDx=0;entryDy=0;strokeColor=#00CC00;strokeWidth=2;fontStyle=1;" parent="1" source="8j6VqZWyWBpULk93ZD53-101" target="RXy6DamFLEHfM2ugey37-14" edge="1">
          <mxGeometry x="-0.8316" relative="1" as="geometry">
            <mxPoint as="offset" />
          </mxGeometry>
        </mxCell>
        <mxCell id="bOGRKbOoEIt-_d6ExcWd-67" value="IF &lt;br&gt;NEW EMAIL/&lt;br&gt;PHONE&amp;nbsp;" style="rounded=0;whiteSpace=wrap;html=1;fontStyle=1;strokeWidth=2;fontSize=11;shape=rhombus;perimeter=rhombusPerimeter;" parent="1" vertex="1">
          <mxGeometry x="3249" y="737" width="105" height="70.19" as="geometry" />
        </mxCell>
        <mxCell id="bOGRKbOoEIt-_d6ExcWd-73" style="edgeStyle=orthogonalEdgeStyle;rounded=0;orthogonalLoop=1;jettySize=auto;html=1;exitX=0;exitY=0;exitDx=0;exitDy=0;entryX=0.703;entryY=0.003;entryDx=0;entryDy=0;entryPerimeter=0;strokeColor=#00CC00;strokeWidth=2;fontStyle=1;startArrow=classic;startFill=1;" parent="1" source="bOGRKbOoEIt-_d6ExcWd-69" target="8j6VqZWyWBpULk93ZD53-136" edge="1">
          <mxGeometry relative="1" as="geometry">
            <Array as="points">
              <mxPoint x="3884" y="1080" />
              <mxPoint x="3324" y="1080" />
            </Array>
          </mxGeometry>
        </mxCell>
        <mxCell id="bOGRKbOoEIt-_d6ExcWd-74" style="edgeStyle=orthogonalEdgeStyle;rounded=0;orthogonalLoop=1;jettySize=auto;html=1;exitX=0;exitY=1;exitDx=0;exitDy=0;strokeColor=#FF2617;strokeWidth=2;fontStyle=1;startArrow=classic;startFill=1;" parent="1" source="bOGRKbOoEIt-_d6ExcWd-69" target="8j6VqZWyWBpULk93ZD53-136" edge="1">
          <mxGeometry relative="1" as="geometry">
            <mxPoint x="3340" y="1200" as="targetPoint" />
            <Array as="points">
              <mxPoint x="3884" y="1180" />
              <mxPoint x="3343" y="1180" />
            </Array>
          </mxGeometry>
        </mxCell>
        <mxCell id="bOGRKbOoEIt-_d6ExcWd-77" style="edgeStyle=orthogonalEdgeStyle;rounded=0;orthogonalLoop=1;jettySize=auto;html=1;exitX=1;exitY=0.5;exitDx=0;exitDy=0;entryX=0.5;entryY=1;entryDx=0;entryDy=0;strokeColor=#00CC00;strokeWidth=2;fontStyle=1;" parent="1" source="bOGRKbOoEIt-_d6ExcWd-69" target="bOGRKbOoEIt-_d6ExcWd-76" edge="1">
          <mxGeometry relative="1" as="geometry" />
        </mxCell>
        <mxCell id="bOGRKbOoEIt-_d6ExcWd-78" style="edgeStyle=orthogonalEdgeStyle;rounded=0;orthogonalLoop=1;jettySize=auto;html=1;exitX=0.5;exitY=1;exitDx=0;exitDy=0;entryX=0.75;entryY=1;entryDx=0;entryDy=0;strokeColor=#FF2617;strokeWidth=2;fontStyle=1;" parent="1" source="bOGRKbOoEIt-_d6ExcWd-69" target="bOGRKbOoEIt-_d6ExcWd-76" edge="1">
          <mxGeometry relative="1" as="geometry" />
        </mxCell>
        <mxCell id="bOGRKbOoEIt-_d6ExcWd-69" value="IF OTP&lt;br&gt;&amp;nbsp;VERIFICATION SUCCESS" style="rounded=0;whiteSpace=wrap;html=1;fontStyle=1;strokeWidth=2;fontSize=11;shape=rhombus;perimeter=rhombusPerimeter;" parent="1" vertex="1">
          <mxGeometry x="3850" y="1101.75" width="135" height="60" as="geometry" />
        </mxCell>
        <mxCell id="bOGRKbOoEIt-_d6ExcWd-79" style="edgeStyle=orthogonalEdgeStyle;rounded=0;orthogonalLoop=1;jettySize=auto;html=1;exitX=0.5;exitY=0;exitDx=0;exitDy=0;strokeColor=#00CC00;strokeWidth=2;fontStyle=1;" parent="1" source="bOGRKbOoEIt-_d6ExcWd-76" target="8j6VqZWyWBpULk93ZD53-148" edge="1">
          <mxGeometry relative="1" as="geometry">
            <Array as="points">
              <mxPoint x="4004" y="180" />
              <mxPoint x="4360" y="180" />
            </Array>
          </mxGeometry>
        </mxCell>
        <mxCell id="bOGRKbOoEIt-_d6ExcWd-76" value="RECEIVE CONTACT UPDATE SUCCESS/FAIL NOTIFICATION" style="rounded=0;whiteSpace=wrap;html=1;fontStyle=1;strokeWidth=2;fontSize=11;" parent="1" vertex="1">
          <mxGeometry x="3937" y="293.99999999999994" width="135" height="60" as="geometry" />
        </mxCell>
        <mxCell id="bOGRKbOoEIt-_d6ExcWd-82" style="edgeStyle=orthogonalEdgeStyle;rounded=0;orthogonalLoop=1;jettySize=auto;html=1;exitX=0.5;exitY=0;exitDx=0;exitDy=0;strokeColor=#00CC00;strokeWidth=2;fontStyle=1;" parent="1" source="bOGRKbOoEIt-_d6ExcWd-80" target="8j6VqZWyWBpULk93ZD53-148" edge="1">
          <mxGeometry relative="1" as="geometry">
            <Array as="points">
              <mxPoint x="4228" y="180" />
              <mxPoint x="4360" y="180" />
            </Array>
          </mxGeometry>
        </mxCell>
        <mxCell id="bOGRKbOoEIt-_d6ExcWd-80" value="RECEIVE UIN ACCOUNT LOCKED FOR 24 HOURS NOTIFICATION WITH FURTHER CONTACT FOR SUPPORT" style="rounded=0;whiteSpace=wrap;html=1;fontStyle=1;strokeWidth=2;fontSize=11;" parent="1" vertex="1">
          <mxGeometry x="4160" y="280" width="135" height="74" as="geometry" />
        </mxCell>
        <mxCell id="bOGRKbOoEIt-_d6ExcWd-84" value="NOTIFICATION GENERATOR" style="rounded=0;whiteSpace=wrap;html=1;fontStyle=1;strokeWidth=2;fontSize=11;fillColor=default;strokeColor=default;" parent="1" vertex="1">
          <mxGeometry x="3980" y="1030" width="270" height="30" as="geometry" />
        </mxCell>
        <mxCell id="bOGRKbOoEIt-_d6ExcWd-90" value="" style="edgeStyle=orthogonalEdgeStyle;rounded=0;orthogonalLoop=1;jettySize=auto;html=1;exitX=0.5;exitY=1;exitDx=0;exitDy=0;entryX=0.5;entryY=0;entryDx=0;entryDy=0;strokeColor=#FF2617;strokeWidth=2;fontStyle=1;" parent="1" source="SGrOJNWW7kL8wJE_WDEo-1" target="bOGRKbOoEIt-_d6ExcWd-89" edge="1">
          <mxGeometry relative="1" as="geometry">
            <mxPoint x="3208" y="229" as="sourcePoint" />
            <mxPoint x="3302" y="737" as="targetPoint" />
          </mxGeometry>
        </mxCell>
        <mxCell id="bOGRKbOoEIt-_d6ExcWd-89" value="ENTER NEW EMAIL/PHONE MANUALLY&amp;nbsp;" style="rounded=0;whiteSpace=wrap;html=1;fontStyle=1;strokeWidth=2;fontSize=11;shape=parallelogram;perimeter=parallelogramPerimeter;fixedSize=1;" parent="1" vertex="1">
          <mxGeometry x="3245.5" y="342.5" width="110" height="42" as="geometry" />
        </mxCell>
        <mxCell id="7Viw_nb1XbYWwF930zh5-4" value="" style="edgeStyle=orthogonalEdgeStyle;rounded=0;orthogonalLoop=1;jettySize=auto;html=1;exitX=1;exitY=0.5;exitDx=0;exitDy=0;strokeColor=#00CC00;strokeWidth=2;fontStyle=1;" parent="1" source="RXy6DamFLEHfM2ugey37-4" target="7Viw_nb1XbYWwF930zh5-1" edge="1">
          <mxGeometry relative="1" as="geometry">
            <mxPoint x="2643" y="189" as="sourcePoint" />
            <mxPoint x="2700" y="280" as="targetPoint" />
          </mxGeometry>
        </mxCell>
        <mxCell id="7Viw_nb1XbYWwF930zh5-6" style="edgeStyle=orthogonalEdgeStyle;rounded=0;orthogonalLoop=1;jettySize=auto;html=1;exitX=0.5;exitY=0;exitDx=0;exitDy=0;entryX=0;entryY=0.5;entryDx=0;entryDy=0;entryPerimeter=0;strokeColor=#FF2617;strokeWidth=2;fontStyle=1;" parent="1" source="7Viw_nb1XbYWwF930zh5-1" target="7Viw_nb1XbYWwF930zh5-5" edge="1">
          <mxGeometry relative="1" as="geometry" />
        </mxCell>
        <mxCell id="7Viw_nb1XbYWwF930zh5-1" value="IF &lt;br&gt;&amp;gt;16 YEARS &lt;br&gt;OLD" style="rounded=0;whiteSpace=wrap;html=1;fontStyle=1;strokeWidth=2;fontSize=11;shape=rhombus;perimeter=rhombusPerimeter;" parent="1" vertex="1">
          <mxGeometry x="2662.5" y="160" width="75" height="57" as="geometry" />
        </mxCell>
        <mxCell id="7Viw_nb1XbYWwF930zh5-7" style="edgeStyle=orthogonalEdgeStyle;rounded=0;orthogonalLoop=1;jettySize=auto;html=1;exitX=1;exitY=0.5;exitDx=0;exitDy=0;exitPerimeter=0;entryX=0.5;entryY=0;entryDx=0;entryDy=0;entryPerimeter=0;strokeColor=#00CC00;strokeWidth=2;fontStyle=1;" parent="1" source="7Viw_nb1XbYWwF930zh5-5" target="8j6VqZWyWBpULk93ZD53-148" edge="1">
          <mxGeometry relative="1" as="geometry">
            <Array as="points">
              <mxPoint x="4360" y="125" />
            </Array>
          </mxGeometry>
        </mxCell>
        <mxCell id="7Viw_nb1XbYWwF930zh5-5" value="&lt;span style=&quot;border-color: var(--border-color);&quot;&gt;&lt;b&gt;RETURN TO HOME PAGE:&lt;br&gt;&lt;/b&gt;PROCEED OFFLINE&lt;br&gt;&lt;/span&gt;" style="strokeWidth=2;html=1;shape=mxgraph.flowchart.terminator;whiteSpace=wrap;fillColor=#f8cecc;strokeColor=#b85450;" parent="1" vertex="1">
          <mxGeometry x="2737.5" y="110" width="182.5" height="30" as="geometry" />
        </mxCell>
        <mxCell id="7Viw_nb1XbYWwF930zh5-12" value="" style="edgeStyle=orthogonalEdgeStyle;rounded=0;orthogonalLoop=1;jettySize=auto;html=1;exitX=1;exitY=0.5;exitDx=0;exitDy=0;entryX=0.5;entryY=0;entryDx=0;entryDy=0;strokeColor=#00CC00;strokeWidth=2;fontStyle=1;" parent="1" source="ba738cxxTfw0AVTlm2XA-5" target="7Viw_nb1XbYWwF930zh5-10" edge="1">
          <mxGeometry relative="1" as="geometry">
            <mxPoint x="3509" y="540" as="sourcePoint" />
            <mxPoint x="3553" y="1102" as="targetPoint" />
          </mxGeometry>
        </mxCell>
        <mxCell id="7Viw_nb1XbYWwF930zh5-10" value="VERIFY POA:&amp;nbsp;&lt;u style=&quot;border-color: var(--border-color);&quot;&gt;OB.3.B&lt;/u&gt;" style="rounded=0;whiteSpace=wrap;html=1;fontStyle=1;strokeWidth=2;fontSize=11;" parent="1" vertex="1">
          <mxGeometry x="3507.5" y="580" width="90" height="50" as="geometry" />
        </mxCell>
        <mxCell id="Px2q6GjrO-IrfUtj3_ra-2" style="edgeStyle=orthogonalEdgeStyle;rounded=0;orthogonalLoop=1;jettySize=auto;html=1;exitX=0;exitY=0.5;exitDx=0;exitDy=0;exitPerimeter=0;entryX=1;entryY=0.5;entryDx=0;entryDy=0;strokeColor=#00CC00;strokeWidth=2;fontStyle=1;" parent="1" source="Px2q6GjrO-IrfUtj3_ra-1" target="bOGRKbOoEIt-_d6ExcWd-50" edge="1">
          <mxGeometry relative="1" as="geometry" />
        </mxCell>
        <mxCell id="Px2q6GjrO-IrfUtj3_ra-1" value="&lt;b style=&quot;font-size: 11px;&quot;&gt;CONTINUE&lt;br&gt;(ONLINE)&lt;br&gt;&lt;/b&gt;" style="strokeWidth=2;html=1;shape=mxgraph.flowchart.terminator;whiteSpace=wrap;fillColor=#d5e8d4;strokeColor=#82b366;fontSize=11;" parent="1" vertex="1">
          <mxGeometry x="3520" y="166.5" width="100" height="40" as="geometry" />
        </mxCell>
        <mxCell id="SGrOJNWW7kL8wJE_WDEo-2" value="" style="edgeStyle=orthogonalEdgeStyle;rounded=0;orthogonalLoop=1;jettySize=auto;html=1;exitX=0.5;exitY=1;exitDx=0;exitDy=0;entryX=0.5;entryY=0;entryDx=0;entryDy=0;strokeColor=#00CC00;strokeWidth=2;fontStyle=1;" parent="1" source="bOGRKbOoEIt-_d6ExcWd-50" target="SGrOJNWW7kL8wJE_WDEo-1" edge="1">
          <mxGeometry relative="1" as="geometry">
            <mxPoint x="3301" y="229" as="sourcePoint" />
            <mxPoint x="3301" y="343" as="targetPoint" />
          </mxGeometry>
        </mxCell>
        <mxCell id="SGrOJNWW7kL8wJE_WDEo-4" value="&lt;span style=&quot;color: rgb(0, 0, 0); font-family: Helvetica; font-style: normal; font-variant-ligatures: normal; font-variant-caps: normal; letter-spacing: normal; orphans: 2; text-align: center; text-indent: 0px; text-transform: none; widows: 2; word-spacing: 0px; -webkit-text-stroke-width: 0px; text-decoration-thickness: initial; text-decoration-style: initial; text-decoration-color: initial; float: none; font-size: 9px; display: inline !important;&quot;&gt;DEACTIVATE OTP/MULTIUSER &lt;br&gt;OTP AUTHENTICATOR&lt;/span&gt;" style="edgeStyle=orthogonalEdgeStyle;rounded=0;orthogonalLoop=1;jettySize=auto;html=1;exitX=1;exitY=0.5;exitDx=0;exitDy=0;strokeColor=#00CC00;strokeWidth=2;fontStyle=1;labelBackgroundColor=none;startArrow=classic;startFill=1;" parent="1" source="SGrOJNWW7kL8wJE_WDEo-1" target="8j6VqZWyWBpULk93ZD53-136" edge="1">
          <mxGeometry x="0.5694" y="15" relative="1" as="geometry">
            <Array as="points">
              <mxPoint x="3370" y="279" />
              <mxPoint x="3370" y="1050" />
              <mxPoint x="3300" y="1050" />
            </Array>
            <mxPoint as="offset" />
          </mxGeometry>
        </mxCell>
        <mxCell id="cZlgK087ySvHKsWI3RZj-1" style="edgeStyle=orthogonalEdgeStyle;rounded=0;orthogonalLoop=1;jettySize=auto;html=1;exitX=0;exitY=0.5;exitDx=0;exitDy=0;entryX=0.5;entryY=0;entryDx=0;entryDy=0;strokeColor=#00CC00;strokeWidth=2;fontStyle=1;" parent="1" source="SGrOJNWW7kL8wJE_WDEo-1" target="SGrOJNWW7kL8wJE_WDEo-3" edge="1">
          <mxGeometry relative="1" as="geometry" />
        </mxCell>
        <mxCell id="SGrOJNWW7kL8wJE_WDEo-1" value="IF&lt;br&gt;&amp;nbsp;UPDATE &lt;br&gt;MULTIUSER PHONE" style="rounded=0;whiteSpace=wrap;html=1;fontStyle=1;strokeWidth=2;fontSize=11;shape=rhombus;perimeter=rhombusPerimeter;" parent="1" vertex="1">
          <mxGeometry x="3250" y="240" width="100" height="77" as="geometry" />
        </mxCell>
        <mxCell id="SGrOJNWW7kL8wJE_WDEo-3" value="CREATE NEW MULTIUSER OTP&lt;br&gt;&lt;u&gt;AU.2.B&lt;/u&gt;" style="rounded=0;whiteSpace=wrap;html=1;fontStyle=1;strokeWidth=2;fontSize=11;" parent="1" vertex="1">
          <mxGeometry x="3145.5" y="306.75" width="100" height="42.5" as="geometry" />
        </mxCell>
        <mxCell id="c3ZWLQ72MxxmwfxnQ8nf-2" style="edgeStyle=orthogonalEdgeStyle;rounded=0;orthogonalLoop=1;jettySize=auto;html=1;exitX=0.5;exitY=1;exitDx=0;exitDy=0;entryX=0;entryY=0.5;entryDx=0;entryDy=0;entryPerimeter=0;strokeColor=#FF2617;strokeWidth=2;fontStyle=1;" parent="1" source="bOGRKbOoEIt-_d6ExcWd-1" target="RXy6DamFLEHfM2ugey37-26" edge="1">
          <mxGeometry relative="1" as="geometry" />
        </mxCell>
        <mxCell id="BMonkDble42DqSNHNsjH-6" style="edgeStyle=orthogonalEdgeStyle;rounded=0;orthogonalLoop=1;jettySize=auto;html=1;exitX=0;exitY=0.5;exitDx=0;exitDy=0;entryX=0.25;entryY=1;entryDx=0;entryDy=0;strokeColor=#00CC00;strokeWidth=2;fontStyle=1;" parent="1" source="BMonkDble42DqSNHNsjH-2" target="RXy6DamFLEHfM2ugey37-1" edge="1">
          <mxGeometry relative="1" as="geometry">
            <Array as="points">
              <mxPoint x="2940" y="1253" />
              <mxPoint x="2940" y="540" />
              <mxPoint x="3040" y="540" />
            </Array>
          </mxGeometry>
        </mxCell>
        <mxCell id="BMonkDble42DqSNHNsjH-2" value="IF &lt;br&gt;RETRY COUNT &lt;br&gt;&amp;lt; = 3" style="rounded=0;whiteSpace=wrap;html=1;fontStyle=1;strokeWidth=2;shape=rhombus;perimeter=rhombusPerimeter;" parent="1" vertex="1">
          <mxGeometry x="3017.5" y="1217.6200000000001" width="95" height="70" as="geometry" />
        </mxCell>
        <mxCell id="BMonkDble42DqSNHNsjH-5" style="edgeStyle=orthogonalEdgeStyle;rounded=0;orthogonalLoop=1;jettySize=auto;html=1;exitX=0.5;exitY=1;exitDx=0;exitDy=0;entryX=0;entryY=0.5;entryDx=0;entryDy=0;entryPerimeter=0;strokeColor=#FF2617;strokeWidth=2;fontStyle=1;" parent="1" source="BMonkDble42DqSNHNsjH-2" target="RXy6DamFLEHfM2ugey37-26" edge="1">
          <mxGeometry relative="1" as="geometry" />
        </mxCell>
        <mxCell id="BMonkDble42DqSNHNsjH-7" value="NOTIFICATION GENERATOR" style="rounded=0;whiteSpace=wrap;html=1;fontStyle=1;strokeWidth=2;fontSize=11;fillColor=default;strokeColor=default;" parent="1" vertex="1">
          <mxGeometry x="2857.5" y="1030" width="160" height="30" as="geometry" />
        </mxCell>
        <mxCell id="BMonkDble42DqSNHNsjH-8" style="edgeStyle=orthogonalEdgeStyle;rounded=0;orthogonalLoop=1;jettySize=auto;html=1;exitX=0.5;exitY=1;exitDx=0;exitDy=0;entryX=0.5;entryY=0;entryDx=0;entryDy=0;entryPerimeter=0;strokeColor=#FF2617;strokeWidth=2;fontStyle=1;" parent="1" source="bOGRKbOoEIt-_d6ExcWd-44" target="RXy6DamFLEHfM2ugey37-26" edge="1">
          <mxGeometry relative="1" as="geometry" />
        </mxCell>
        <mxCell id="aBrNtb3bDGu1mBepz1W1-1" value="" style="edgeStyle=orthogonalEdgeStyle;rounded=0;orthogonalLoop=1;jettySize=auto;html=1;exitX=0.5;exitY=1;exitDx=0;exitDy=0;entryX=0.5;entryY=0;entryDx=0;entryDy=0;strokeColor=#FF2617;strokeWidth=2;fontStyle=1;" parent="1" source="RXy6DamFLEHfM2ugey37-38" target="BMonkDble42DqSNHNsjH-3" edge="1">
          <mxGeometry relative="1" as="geometry">
            <mxPoint x="3065" y="940" as="sourcePoint" />
            <mxPoint x="3065" y="1218" as="targetPoint" />
          </mxGeometry>
        </mxCell>
        <mxCell id="BMonkDble42DqSNHNsjH-3" value="EXCEPTION AND ERROR HANDLING (COUNTER)" style="rounded=0;whiteSpace=wrap;html=1;fontStyle=1;strokeWidth=2;fontSize=11;shape=label;boundedLbl=1;backgroundOutline=1;size=9.769240159254764;" parent="1" vertex="1">
          <mxGeometry x="2965" y="1129.5" width="200" height="43.32" as="geometry" />
        </mxCell>
        <mxCell id="ba738cxxTfw0AVTlm2XA-6" style="edgeStyle=orthogonalEdgeStyle;rounded=0;orthogonalLoop=1;jettySize=auto;html=1;exitX=0.5;exitY=0;exitDx=0;exitDy=0;entryX=0.5;entryY=1;entryDx=0;entryDy=0;strokeColor=#00CC00;strokeWidth=2;fontStyle=1;jumpStyle=arc;jumpSize=11;" parent="1" source="ba738cxxTfw0AVTlm2XA-1" target="ba738cxxTfw0AVTlm2XA-5" edge="1">
          <mxGeometry relative="1" as="geometry" />
        </mxCell>
        <mxCell id="bOGRKbOoEIt-_d6ExcWd-57" style="edgeStyle=orthogonalEdgeStyle;rounded=0;orthogonalLoop=1;jettySize=auto;html=1;exitX=1;exitY=0.5;exitDx=0;exitDy=0;strokeColor=#00CC00;strokeWidth=2;fontStyle=1;jumpStyle=arc;jumpSize=11;" parent="1" source="bOGRKbOoEIt-_d6ExcWd-46" target="bOGRKbOoEIt-_d6ExcWd-56" edge="1">
          <mxGeometry relative="1" as="geometry" />
        </mxCell>
        <mxCell id="bOGRKbOoEIt-_d6ExcWd-61" style="edgeStyle=orthogonalEdgeStyle;rounded=0;orthogonalLoop=1;jettySize=auto;html=1;exitX=0.5;exitY=1;exitDx=0;exitDy=0;entryX=0.75;entryY=1;entryDx=0;entryDy=0;strokeColor=#FF2617;strokeWidth=2;fontStyle=1;jumpStyle=arc;jumpSize=11;" parent="1" source="bOGRKbOoEIt-_d6ExcWd-46" target="bOGRKbOoEIt-_d6ExcWd-56" edge="1">
          <mxGeometry relative="1" as="geometry">
            <Array as="points">
              <mxPoint x="3553" y="1170" />
              <mxPoint x="3684" y="1170" />
            </Array>
          </mxGeometry>
        </mxCell>
        <mxCell id="bOGRKbOoEIt-_d6ExcWd-47" style="edgeStyle=orthogonalEdgeStyle;rounded=0;orthogonalLoop=1;jettySize=auto;html=1;exitX=0.5;exitY=1;exitDx=0;exitDy=0;entryX=0.5;entryY=0;entryDx=0;entryDy=0;strokeColor=#00CC00;strokeWidth=2;fontStyle=1;jumpStyle=arc;jumpSize=11;" parent="1" source="7Viw_nb1XbYWwF930zh5-10" target="bOGRKbOoEIt-_d6ExcWd-46" edge="1">
          <mxGeometry relative="1" as="geometry" />
        </mxCell>
        <mxCell id="ba738cxxTfw0AVTlm2XA-7" style="edgeStyle=orthogonalEdgeStyle;rounded=0;orthogonalLoop=1;jettySize=auto;html=1;exitX=1;exitY=0.5;exitDx=0;exitDy=0;entryX=0.5;entryY=1;entryDx=0;entryDy=0;strokeColor=#00CC00;strokeWidth=2;fontStyle=1;jumpStyle=arc;jumpSize=11;" parent="1" source="bOGRKbOoEIt-_d6ExcWd-44" target="ba738cxxTfw0AVTlm2XA-8" edge="1">
          <mxGeometry relative="1" as="geometry">
            <mxPoint x="4340" y="625.5" as="targetPoint" />
          </mxGeometry>
        </mxCell>
        <mxCell id="bOGRKbOoEIt-_d6ExcWd-68" value="" style="edgeStyle=orthogonalEdgeStyle;rounded=0;orthogonalLoop=1;jettySize=auto;html=1;exitX=0.5;exitY=1;exitDx=0;exitDy=0;entryX=0.5;entryY=0;entryDx=0;entryDy=0;strokeColor=#00CC00;strokeWidth=2;fontStyle=1;jumpStyle=arc;jumpSize=11;" parent="1" source="bOGRKbOoEIt-_d6ExcWd-89" target="bOGRKbOoEIt-_d6ExcWd-67" edge="1">
          <mxGeometry relative="1" as="geometry">
            <mxPoint x="3208" y="210" as="sourcePoint" />
            <mxPoint x="3298" y="840" as="targetPoint" />
          </mxGeometry>
        </mxCell>
        <mxCell id="BMonkDble42DqSNHNsjH-1" style="edgeStyle=orthogonalEdgeStyle;rounded=0;orthogonalLoop=1;jettySize=auto;html=1;exitX=0.5;exitY=1;exitDx=0;exitDy=0;strokeColor=#00CC00;strokeWidth=2;fontStyle=1;jumpStyle=arc;jumpSize=11;" parent="1" source="SGrOJNWW7kL8wJE_WDEo-3" target="8j6VqZWyWBpULk93ZD53-148" edge="1">
          <mxGeometry relative="1" as="geometry">
            <Array as="points">
              <mxPoint x="3196" y="500" />
              <mxPoint x="4360" y="500" />
            </Array>
          </mxGeometry>
        </mxCell>
        <mxCell id="bOGRKbOoEIt-_d6ExcWd-41" value="" style="group" parent="1" vertex="1" connectable="0">
          <mxGeometry x="1959" y="408" width="2491" height="40" as="geometry" />
        </mxCell>
        <mxCell id="f_N6EA1bxfHCcthCMWnL-3" value="API/ HTTPS (SSL/TLS)" style="shape=label;whiteSpace=wrap;html=1;boundedLbl=1;backgroundOutline=1;darkOpacity=0.05;darkOpacity2=0.1;fillColor=#f8cecc;strokeColor=#b85450;rounded=0;fontStyle=1" parent="bOGRKbOoEIt-_d6ExcWd-41" vertex="1">
          <mxGeometry x="1.6104126547455295" width="2488.247450710683" height="20" as="geometry" />
        </mxCell>
        <mxCell id="8j6VqZWyWBpULk93ZD53-87" value="FIREWALL" style="shape=label;whiteSpace=wrap;html=1;boundedLbl=1;backgroundOutline=1;darkOpacity=0.05;darkOpacity2=0.1;fillColor=#e51400;fontColor=#ffffff;strokeColor=#B20000;rounded=0;fontStyle=1" parent="bOGRKbOoEIt-_d6ExcWd-41" vertex="1">
          <mxGeometry y="20" width="2489.857863365429" height="20" as="geometry" />
        </mxCell>
        <mxCell id="bOGRKbOoEIt-_d6ExcWd-42" value="" style="group" parent="1" vertex="1" connectable="0">
          <mxGeometry x="1959" y="660" width="2491" height="60" as="geometry" />
        </mxCell>
        <mxCell id="f_N6EA1bxfHCcthCMWnL-4" value="API/ HTTPS (SSL/TLS)" style="shape=label;whiteSpace=wrap;html=1;boundedLbl=1;backgroundOutline=1;darkOpacity=0.05;darkOpacity2=0.1;fillColor=#f8cecc;strokeColor=#b85450;rounded=0;fontStyle=1" parent="bOGRKbOoEIt-_d6ExcWd-42" vertex="1">
          <mxGeometry width="2491" height="20" as="geometry" />
        </mxCell>
        <mxCell id="YJR0z1WgLUDB-b2zbVjA-1" value="" style="group" parent="bOGRKbOoEIt-_d6ExcWd-42" vertex="1" connectable="0">
          <mxGeometry y="20" width="2491" height="40" as="geometry" />
        </mxCell>
        <mxCell id="8j6VqZWyWBpULk93ZD53-64" value="SINGLE/ DUAL FIREWALL" style="shape=label;whiteSpace=wrap;html=1;boundedLbl=1;backgroundOutline=1;darkOpacity=0.05;darkOpacity2=0.1;fillColor=#e51400;fontColor=#ffffff;strokeColor=#B20000;rounded=0;fontStyle=1" parent="YJR0z1WgLUDB-b2zbVjA-1" vertex="1">
          <mxGeometry width="2490.9999999999995" height="20" as="geometry" />
        </mxCell>
        <mxCell id="8j6VqZWyWBpULk93ZD53-65" value="IDS, IPS, HONEYPOT" style="shape=label;whiteSpace=wrap;html=1;boundedLbl=1;backgroundOutline=1;darkOpacity=0.05;darkOpacity2=0.1;fillColor=#f0a30a;strokeColor=#BD7000;rounded=0;fontColor=#000000;fontSize=12;fontStyle=1" parent="YJR0z1WgLUDB-b2zbVjA-1" vertex="1">
          <mxGeometry y="20" width="2490.9999999999995" height="20" as="geometry" />
        </mxCell>
        <mxCell id="bOGRKbOoEIt-_d6ExcWd-43" value="" style="group" parent="1" vertex="1" connectable="0">
          <mxGeometry x="1960" y="960" width="2490" height="60" as="geometry" />
        </mxCell>
        <mxCell id="YJR0z1WgLUDB-b2zbVjA-2" value="" style="group" parent="bOGRKbOoEIt-_d6ExcWd-43" vertex="1" connectable="0">
          <mxGeometry y="20" width="2490" height="40" as="geometry" />
        </mxCell>
        <mxCell id="8j6VqZWyWBpULk93ZD53-66" value="SINGLE / DUAL FIREWALL" style="shape=label;whiteSpace=wrap;html=1;boundedLbl=1;backgroundOutline=1;darkOpacity=0.05;darkOpacity2=0.1;fillColor=#e51400;fontColor=#ffffff;strokeColor=#B20000;rounded=0;fontStyle=1" parent="YJR0z1WgLUDB-b2zbVjA-2" vertex="1">
          <mxGeometry width="2490" height="20" as="geometry" />
        </mxCell>
        <mxCell id="8j6VqZWyWBpULk93ZD53-67" value="IDS, IPS, HONEYPOT" style="shape=label;whiteSpace=wrap;html=1;boundedLbl=1;backgroundOutline=1;darkOpacity=0.05;darkOpacity2=0.1;fillColor=#f0a30a;strokeColor=#BD7000;rounded=0;fontColor=#000000;fontSize=12;fontStyle=1" parent="YJR0z1WgLUDB-b2zbVjA-2" vertex="1">
          <mxGeometry y="20" width="2490" height="20" as="geometry" />
        </mxCell>
        <mxCell id="oByt-uk4F92XMUXTlmi7-3" value="API/ HTTPS (SSL/TLS)" style="shape=label;whiteSpace=wrap;html=1;boundedLbl=1;backgroundOutline=1;darkOpacity=0.05;darkOpacity2=0.1;fillColor=#f8cecc;strokeColor=#b85450;rounded=0;fontStyle=1" parent="bOGRKbOoEIt-_d6ExcWd-43" vertex="1">
          <mxGeometry width="2490" height="20" as="geometry" />
        </mxCell>
        <mxCell id="bOGRKbOoEIt-_d6ExcWd-83" value="NOTIFICATION GENERATOR" style="rounded=0;whiteSpace=wrap;html=1;fontStyle=1;strokeWidth=2;fontSize=11;fillColor=default;strokeColor=default;" parent="1" vertex="1">
          <mxGeometry x="3590" y="1030" width="160" height="30" as="geometry" />
        </mxCell>
        <mxCell id="2aSzfAqadGz2C29zv21d-1" value="&lt;div style=&quot;font-size: 18px;&quot;&gt;&lt;font style=&quot;font-size: 18px;&quot;&gt;&lt;b style=&quot;font-size: 18px;&quot;&gt;Purpose:&lt;/b&gt;&lt;/font&gt;&lt;/div&gt;&lt;div style=&quot;font-size: 18px;&quot;&gt;This SOP g&lt;span style=&quot;background-color: rgb(255, 255, 255); color: rgb(13, 13, 13); font-size: 18px; white-space-collapse: preserve;&quot;&gt;uides users in updating their personal information online. &lt;/span&gt;&lt;br style=&quot;font-size: 18px;&quot;&gt;&lt;/div&gt;" style="whiteSpace=wrap;html=1;align=left;rounded=0;strokeWidth=2;verticalAlign=middle;fontFamily=Helvetica;fontSize=18;fontStyle=0;" vertex="1" parent="1">
          <mxGeometry x="1930" width="2540" height="60" as="geometry" />
        </mxCell>
      </root>
    </mxGraphModel>
  </diagram>
</mxfile>
